<svg xmlns="http://www.w3.org/2000/svg" xmlns:xlink="http://www.w3.org/1999/xlink" viewBox="0 0 2271.47 628.01"><defs><style>.cls-1,.cls-2{stroke-miterlimit:10;}.cls-1{fill:url(#linear-gradient);stroke:url(#linear-gradient-2);}.cls-2{fill:url(#linear-gradient-3);stroke:url(#linear-gradient-4);}.cls-3{stroke:#231f20;}</style><linearGradient id="linear-gradient" x1="1741.84" y1="241.94" x2="2270.97" y2="241.94" gradientUnits="userSpaceOnUse"><stop offset="0" stop-color="#2b3990"/><stop offset="1" stop-color="#1c75bc"/></linearGradient><linearGradient id="linear-gradient-2" x1="1741.12" y1="241.85" x2="2271.47" y2="241.85" xlink:href="#linear-gradient"/><linearGradient id="linear-gradient-3" x1="1377.54" y1="386.09" x2="1906.66" y2="386.09" xlink:href="#linear-gradient"/><linearGradient id="linear-gradient-4" x1="1377.04" y1="386.18" x2="1907.38" y2="386.18" xlink:href="#linear-gradient"/></defs><g id="Layer_2" data-name="Layer 2"><g id="Layer_1-2" data-name="Layer 1"><path class="cls-1" d="M2271,222.5V477.21c-57.06,10.4-102.31,5.13-128.92,0a363.14,363.14,0,0,1-63.12-18.68c-29.24-11.55-49.27-24-72.53-38.48a656.46,656.46,0,0,1-54.35-37.91,336.77,336.77,0,0,1-27.14-23.62L1741.84,182.11,1930.06.69,2110.82,175c23.32,22.41,52.38,39,84.52,46,2.38.51,4.82,1,7.31,1.46A194.65,194.65,0,0,0,2271,222.5Z"/><path class="cls-2" d="M1723.59,269.49l183.07,176.4-188.2,181.43L1537.69,453c-23.32-22.42-52.38-38.92-84.53-46-2.36-.57-4.8-1-7.3-1.45a192.72,192.72,0,0,0-68.32,0V150.87c57-10.47,102.31-5.14,128.92,0a355,355,0,0,1,63.1,18.61c29.26,11.61,49.29,24,72.54,38.54,15,9.33,33.59,21.85,54.34,37.85A333.51,333.51,0,0,1,1723.59,269.49Z"/><path class="cls-3" d="M9.43,279.23a51,51,0,0,1,5.64-24,61.38,61.38,0,0,1,15.51-18.33,75.17,75.17,0,0,1,24-12.23,104.19,104.19,0,0,1,30.08-4.23q22.1,0,39,8.74,17.85,9.12,26.32,19,2.82,3.76,2.82,7a7.54,7.54,0,0,1-1.88,4.7,7.13,7.13,0,0,1-5.64,2.82,9.85,9.85,0,0,1-7.05-3.29A117,117,0,0,0,118,244q-13.65-8.47-34.32-8.47a108.63,108.63,0,0,0-21.15,1.88,54.61,54.61,0,0,0-18.8,7A36.74,36.74,0,0,0,30.58,258q-5.17,8.91-5.17,21.11,0,15,10.38,23.92a91.6,91.6,0,0,0,25.94,15.47q8,3.29,16.27,6.11t17.68,5.62q9.43,2.82,17.68,6.1t16.27,7a85,85,0,0,1,25.94,18.77q10.38,10.79,10.38,30a66,66,0,0,1-5.66,27.21q-5.19,11.73-16.5,21.57A72,72,0,0,1,118.34,455q-14.15,4.69-33.95,4.7-26.4,0-47.14-11.13a98.19,98.19,0,0,1-34.4-29.77A13.38,13.38,0,0,1,.5,411.77q0-1.87,2.35-5.17a6.32,6.32,0,0,1,5.64-2.82q2.82,0,7,5.17a59.72,59.72,0,0,0,9.87,11.28A71.31,71.31,0,0,0,40,431.51,80.41,80.41,0,0,0,59.72,440q10.34,3.3,26.32,3.29,28.67,0,46.54-13.59Q150,416.55,150,393.58q0-15.46-10.34-25.31a89.1,89.1,0,0,0-25.85-16.4q-15.52-6.09-33.85-11.25A160.45,160.45,0,0,1,46.09,328a97.56,97.56,0,0,1-25.85-19.22Q9.89,298,9.9,278.29Z"/><path class="cls-3" d="M242.09,268a88.15,88.15,0,0,1,28.2-33.38q18.79-13.62,47.94-13.63,24,0,40.89,7.52a80.37,80.37,0,0,1,28.67,20.22,83.86,83.86,0,0,1,16.93,29.61,113.71,113.71,0,0,1,5.64,36.19V448a7.29,7.29,0,0,1-8,7.53c-5.34,0-8-2.51-8-7.53V314a90.65,90.65,0,0,0-4.7-29.61q-5.19-15-14.58-24.91a78.87,78.87,0,0,0-24-16.92A77.84,77.84,0,0,0,318.7,236q-18.79,0-32.43,6.11a79.06,79.06,0,0,0-24,16.93q-9.41,9.87-14.57,24.91a90.12,90.12,0,0,0-4.7,29.61v134q0,7.53-8,7.52a8,8,0,0,1-8-8V137.75a8,8,0,0,1,8-8q8,0,8,7.52V266.07Z"/><path class="cls-3" d="M690,413.24v4.46a22.1,22.1,0,0,0,.47,4.45c.31,1.56.62,3.05.94,4.46a28.39,28.39,0,0,0,1.41,4.46,12.15,12.15,0,0,0,5.17,6.09,16.45,16.45,0,0,0,8.93,2.34c5.64,0,8.46,2.6,8.46,7.77q0,7.28-8.46,7.28-20.69,0-26.79-11.76T674,413.18V395.32Q660.41,424,636.91,441.38,612.46,459.26,580,459.25a107.59,107.59,0,0,1-44.18-9.41,98.35,98.35,0,0,1-35.25-25.38,118.77,118.77,0,0,1-23-38.07q-8.46-21.61-8.46-47.47a131.61,131.61,0,0,1,8.46-47.47,121.4,121.4,0,0,1,23.5-38.07,107.64,107.64,0,0,1,79-34.79q34.79,0,57.82,17.39,23,17.88,36.66,46.54V231.28c0-5,2.66-7.52,8-7.52a7.27,7.27,0,0,1,8,7.51v181.5ZM579.09,446.08a88.85,88.85,0,0,0,37.61-8,90.18,90.18,0,0,0,29.61-21.2q12.69-13.19,19.74-32.51,7.05-18.84,7.05-41.92a125.19,125.19,0,0,0-7.07-42.4,100.86,100.86,0,0,0-19.79-33.92,99.37,99.37,0,0,0-29.69-22.6A82,82,0,0,0,579.33,235q-22.14,0-39.58,8.49a85.81,85.81,0,0,0-29.68,22.6,104.38,104.38,0,0,0-18.39,33.45,130.43,130.43,0,0,0,0,82,92,92,0,0,0,19.36,33,86,86,0,0,0,30.23,21.67,96.09,96.09,0,0,0,38.73,8Z"/><path class="cls-3" d="M768.51,232.22c0-5,2.74-7.52,8.22-7.52,5.17,0,7.76,2.52,7.76,7.52V275q12.69-25.85,32-40.9,18.79-14.55,54.52-14.57,8.92,0,8.93,7.05c0,5.34-2.66,8-8,8q-41.83,0-64.86,24.45t-23,66.74V446.55q0,7.53-7.76,7.52-8.22,0-8.22-7.52V231.28Z"/><path class="cls-3" d="M914.22,336.57q0,23.51,6.11,42.3a102.82,102.82,0,0,0,18.33,34.31,83,83,0,0,0,29.61,23q17.38,8.46,40.89,8.46,26.79,0,45.12-8.93a126.1,126.1,0,0,0,33.84-23q3.29-3.29,6.11-3.29a7.16,7.16,0,0,1,5.65,2.82q2.34,3.3,2.34,5.64a9.88,9.88,0,0,1-3.29,7.05q-13.15,14.1-37.13,24.44-23.5,10.33-52.64,10.35a110.9,110.9,0,0,1-45.59-9.41,98.35,98.35,0,0,1-35.25-25.38,103.05,103.05,0,0,1-22.56-38.07q-7.53-21.15-7.52-47a132.75,132.75,0,0,1,8.46-47.94,121.22,121.22,0,0,1,23.5-38.07A108.52,108.52,0,0,1,965,228.46q19.26-8.91,43.24-8.93,23,0,41.36,7.52A99.33,99.33,0,0,1,1082,247.74a88.68,88.68,0,0,1,21.15,30.08,91.06,91.06,0,0,1,8,36.66q0,9.4-2.83,15t-13.63,5.64H915.16ZM1006.81,236a93.26,93.26,0,0,0-32,5.62,86.86,86.86,0,0,0-28.2,16.82,97.36,97.36,0,0,0-32,63.58h178.6a73.21,73.21,0,0,0-4.23-31.79,75.61,75.61,0,0,0-16.92-27.58,94.55,94.55,0,0,0-28.2-19.63,87.53,87.53,0,0,0-36.66-7.49Z"/><path class="cls-3" d="M1175.55,232.22c0-5,2.74-7.52,8.22-7.52,5.17,0,7.76,2.52,7.76,7.52V275q12.69-25.85,32-40.9,18.79-14.55,54.52-14.57,8.92,0,8.93,7.05c0,5.34-2.66,8-8,8q-41.84,0-64.86,24.45t-23,66.74V446.55q0,7.53-7.77,7.52-8.2,0-8.21-7.52V231.28Z"/></g></g></svg>