<svg xmlns="http://www.w3.org/2000/svg" xmlns:xlink="http://www.w3.org/1999/xlink" viewBox="0 0 1198.39 1198.39"><defs><style>.cls-1{stroke:#231f20;fill:url(#linear-gradient);}.cls-1,.cls-2,.cls-3{stroke-miterlimit:10;}.cls-2,.cls-3{fill:#fff;}.cls-2{stroke:url(#linear-gradient-2);}.cls-3{stroke:url(#linear-gradient-3);}</style><linearGradient id="linear-gradient" x1="0.5" y1="599.2" x2="1197.89" y2="599.2" gradientUnits="userSpaceOnUse"><stop offset="0" stop-color="#2b3990"/><stop offset="1" stop-color="#1c75bc"/></linearGradient><linearGradient id="linear-gradient-2" x1="516.06" y1="527.04" x2="1046.41" y2="527.04" xlink:href="#linear-gradient"/><linearGradient id="linear-gradient-3" x1="151.98" y1="671.37" x2="682.32" y2="671.37" xlink:href="#linear-gradient"/></defs><g id="Layer_2" data-name="Layer 2"><g id="Layer_1-2" data-name="Layer 1"><rect class="cls-1" x="0.5" y="0.5" width="1197.39" height="1197.39" rx="175.52"/><path class="cls-2" d="M1045.91,507.69V762.4c-57.06,10.4-102.31,5.13-128.92,0a363.14,363.14,0,0,1-63.12-18.68c-29.24-11.55-49.27-24-72.53-38.48A656.46,656.46,0,0,1,727,667.33a336.77,336.77,0,0,1-27.14-23.62L516.78,467.3,705,285.88,885.76,460.2c23.32,22.41,52.38,39,84.52,46,2.38.51,4.82,1,7.31,1.46A194.89,194.89,0,0,0,1045.91,507.69Z"/><path class="cls-3" d="M498.53,554.68,681.6,731.08,493.4,912.51,312.63,738.2c-23.32-22.42-52.38-38.92-84.53-46-2.36-.57-4.8-1-7.3-1.45a192.72,192.72,0,0,0-68.32,0V436.06c57.05-10.47,102.31-5.15,128.92,0a355,355,0,0,1,63.1,18.61c29.26,11.61,49.29,24,72.54,38.54,15,9.33,33.59,21.85,54.34,37.85A333.51,333.51,0,0,1,498.53,554.68Z"/></g></g></svg>